#!OML:ASF I:\Actors\actors\Patient Classification 2\Patient 1\Session 1\actor1.ASF
:FULLY-SPECIFIED
:DEGREES
712
root -0.826139 18.597 4.56929 -5.56009 -0.551566 -3.48181
lowerback 20.0853 -0.106483 0.793411
upperback 3.46794 0.194241 1.98625
thorax -7.47793 0.0952102 1.64342
lowerneck 4.84185 -9.11924 -11.7603
upperneck 41.9034 -13.1106 0.973902
head 14.8566 -7.43502 1.04072
rclavicle -5.06901e-015 -2.73329e-014
rhumerus -62.6416 18.881 -88.8817
rradius 112.853
rwrist 36.9191
rhand -7.1282 -39.4165
rfingers 7.12502
rthumb 18.7475 -68.533
lclavicle -5.06901e-015 -2.73329e-014
lhumerus -57.911 -12.2581 90.8923
lradius 108.671
lwrist -10.2074
lhand -2.30206 -23.2438
lfingers 7.12502
lthumb 23.3837 5.35561
rfemur 11.0402 8.80814 19.2874
rtibia -1.27222e-014
rfoot -18.2492 -17.2638
rtoes -10.9762
lfemur -3.95804 -1.72408 -9.9247
ltibia 25.392
lfoot -18.295 9.2525
ltoes -56.0361
713
root -0.825887 18.5984 4.574 -5.51938 -0.447876 -3.53489
lowerback 20.0428 -0.124848 0.950286
upperback 3.31609 0.200772 1.92091
thorax -7.61988 0.0943662 1.4825
lowerneck 5.00221 -9.10457 -11.7479
upperneck 41.7819 -13.1698 1.15915
head 14.781 -7.44386 1.12071
rclavicle -9.93923e-017 -7.35503e-015
rhumerus -62.4932 19.2333 -89.1039
rradius 112.63
rwrist 36.8804
rhand -7.34718 -39.5297
rfingers 7.12502
rthumb 18.5369 -68.6665
lclavicle -9.93923e-017 -7.35503e-015
lhumerus -57.8284 -12.6983 91.1541
lradius 108.634
lwrist -10.1195
lhand -2.25935 -23.0306
lfingers 7.12502
lthumb 23.4246 5.56362
rfemur 11.0279 8.69775 19.3319
rtibia -1.59028e-014
rfoot -18.2278 -17.2769
rtoes -11.1724
lfemur -4.00438 -1.77309 -9.86523
ltibia 25.392
lfoot -18.3073 9.20511
ltoes -56.0618
714
root -0.822635 18.6005 4.58178 -5.45322 -0.234691 -3.58358
lowerback 19.8171 -0.192939 1.10807
upperback 3.24095 0.138178 1.87732
thorax -7.57869 0.0599762 1.36033
lowerneck 4.9344 -9.09928 -11.6275
upperneck 41.6262 -13.1783 1.2212
head 14.7066 -7.42188 1.12729
rclavicle -2.48481e-016 -1.64991e-014
rhumerus -62.1135 19.7969 -89.194
rradius 112.419
rwrist 36.8106
rhand -7.38064 -39.6744
rfingers 7.12502
rthumb 18.5047 -68.8142
lclavicle -2.48481e-016 -1.64991e-014
lhumerus -57.5315 -13.1904 91.4639
lradius 108.566
lwrist -9.88881
lhand -2.2373 -22.9387
lfingers 7.12502
lthumb 23.4458 5.6528
rfemur 11.0111 8.47911 19.3494
rtibia 1.90833e-014
rfoot -18.2645 -17.2658
rtoes -11.3491
lfemur -4.09408 -1.96844 -9.83284
ltibia 25.3751
lfoot -18.354 9.15382
ltoes -56.0306
715
root -0.819862 18.6034 4.59264 -5.31624 -0.492699 -3.5855
lowerback 19.5074 -0.113234 1.10105
upperback 3.11256 0.234646 1.8545
thorax -7.55309 0.10637 1.3136
lowerneck 4.82331 -9.03405 -11.5158
upperneck 41.4825 -13.066 1.19766
head 14.6297 -7.35837 1.1125
rclavicle 1.19271e-015 1.09332e-014
rhumerus -61.7347 20.6659 -89.2678
rradius 112.287
rwrist 36.6998
rhand -7.19039 -39.8252
rfingers 7.12502
rthumb 18.6877 -68.9476
lclavicle 1.19271e-015 1.09332e-014
lhumerus -57.2268 -13.5886 91.8433
lradius 108.476
lwrist -9.56708
lhand -2.23312 -22.9804
lfingers 7.12502
lthumb 23.4498 5.6106
rfemur 10.8564 8.73447 19.3551
rtibia -2.62396e-014
rfoot -18.2166 -17.3376
rtoes -11.9677
lfemur -4.11187 -1.91137 -9.83887
ltibia 25.3341
lfoot -18.482 9.28561
ltoes -55.8886
716
root -0.825223 18.605 4.61764 -5.21284 -0.204306 -3.65719
lowerback 19.0308 -0.237513 1.09862
upperback 2.94808 0.0655015 1.87078
thorax -7.47183 0.0254598 1.37292
lowerneck 4.86799 -8.88897 -11.5143
upperneck 41.1889 -12.9084 1.36474
head 14.4695 -7.27532 1.21141
rclavicle -2.03754e-015 4.57205e-015
rhumerus -61.2699 21.7714 -89.3384
rradius 112.147
rwrist 36.5811
rhand -6.77593 -40.0069
rfingers 7.12502
rthumb 19.0863 -69.0904
lclavicle -2.03754e-015 4.57205e-015
lhumerus -56.992 -14.0135 92.2931
lradius 108.447
lwrist -9.1347
lhand -2.2253 -22.9704
lfingers 7.12502
lthumb 23.4573 5.61962
rfemur 10.8955 8.42961 19.441
rtibia -4.37326e-014
rfoot -18.3461 -17.2658
rtoes -12.1337
lfemur -4.16704 -2.0066 -9.73198
ltibia 25.2659
lfoot -18.4741 9.11346
ltoes -56.0098
717
root -0.826273 18.6051 4.6363 -5.1902 -0.0753407 -3.68918
lowerback 18.6835 -0.317836 1.12545
upperback 2.79868 -0.0416553 1.84182
thorax -7.44408 -0.0271312 1.35112
lowerneck 4.81579 -8.74029 -11.4851
upperneck 40.8326 -12.7551 1.59028
head 14.3005 -7.18146 1.32411
rclavicle 5.96354e-016 9.44227e-015
rhumerus -60.3773 23.1161 -89.2688
rradius 111.911
rwrist 36.3104
rhand -6.03126 -40.275
rfingers 7.12502
rthumb 19.8023 -69.2862
lclavicle 5.96354e-016 9.44227e-015
lhumerus -56.6559 -14.5797 92.8045
lradius 108.492
lwrist -8.31587
lhand -2.23994 -22.7351
lfingers 7.12502
lthumb 23.4432 5.85677
rfemur 10.974 8.29124 19.4948
rtibia 3.97569e-015
rfoot -18.4604 -17.2287
rtoes -12.2207
lfemur -4.10319 -2.08652 -9.6868
ltibia 25.1768
lfoot -18.5189 9.06356
ltoes -56.2144
718
root -0.824651 18.6057 4.64939 -5.21865 -0.182542 -3.70852
lowerback 18.423 -0.3056 1.2136
upperback 2.67802 -0.0167825 1.78042
thorax -7.4338 -0.0182464 1.22732
lowerneck 4.56202 -8.62544 -11.4587
upperneck 40.4974 -12.6388 1.84303
head 14.19 -7.096 1.43036
rclavicle 1.36664e-015 1.44119e-015
rhumerus -58.9554 24.6812 -88.9522
rradius 111.545
rwrist 35.8437
rhand -5.02214 -40.5011
rfingers 7.12502
rthumb 20.7721 -69.4093
lclavicle 1.36664e-015 1.44119e-015
lhumerus -56.1603 -15.3249 93.3761
lradius 108.493
lwrist -7.19813
lhand -2.41987 -22.4764
lfingers 7.12502
lthumb 23.2706 6.13736
rfemur 11.0533 8.39204 19.5543
rtibia 4.77083e-014
rfoot -18.537 -17.2374
rtoes -12.5246
lfemur -3.93021 -2.08601 -9.65864
ltibia 25.0754
lfoot -18.5746 9.12164
ltoes -56.2202
719
root -0.824256 18.6081 4.65702 -5.20389 -0.324412 -3.68133
lowerback 18.1753 -0.255609 1.28833
upperback 2.50909 0.0538212 1.68939
thorax -7.48258 0.0125403 1.0691
lowerneck 4.33872 -8.53815 -11.4704
upperneck 40.0653 -12.5871 2.18073
head 14.0437 -7.03482 1.57151
rclavicle -7.13761e-015 -3.72721e-015
rhumerus -57.1947 26.2551 -88.4409
rradius 111.093
rwrist 35.3873
rhand -3.70992 -40.6117
rfingers 7.12502
rthumb 22.0325 -69.3767
lclavicle -7.13761e-015 -3.72721e-015
lhumerus -55.6161 -16.1954 93.9951
lradius 108.429
lwrist -6.08503
lhand -2.60042 -22.2988
lfingers 7.12502
lthumb 23.0974 6.33683
rfemur 11.0529 8.53368 19.5511
rtibia 2.22639e-014
rfoot -18.5703 -17.2506
rtoes -12.7467
lfemur -3.82075 -2.05685 -9.67967
ltibia 24.9748
lfoot -18.6038 9.19873
ltoes -56.1615
720
root -0.825794 18.6089 4.66104 -5.1865 -0.469412 -3.65
lowerback 17.9898 -0.240352 1.28827
upperback 2.28323 0.0643301 1.56994
thorax -7.6258 0.0155981 0.93871
lowerneck 4.20295 -8.44373 -11.269
upperneck 39.5115 -12.4884 2.35407
head 13.7834 -6.94363 1.62442
rclavicle 8.3707e-015 6.70898e-016
rhumerus -55.2009 27.9139 -87.8982
rradius 110.608
rwrist 34.9586
rhand -1.91684 -40.8806
rfingers 7.12502
rthumb 23.7532 -69.4326
lclavicle 8.3707e-015 6.70898e-016
lhumerus -55.1122 -17.0296 94.5489
lradius 108.406
lwrist -4.87295
lhand -2.48944 -22.1012
lfingers 7.12502
lthumb 23.2039 6.52104
rfemur 11.0347 8.67911 19.5441
rtibia 2.38542e-014
rfoot -18.583 -17.2523
rtoes -12.7391
lfemur -3.73068 -2.01894 -9.7049
ltibia 24.8626
lfoot -18.6 9.29653
ltoes -56.2307
721
root -0.829285 18.6068 4.66514 -5.25367 -0.832441 -3.65534
lowerback 17.9195 -0.194727 1.20253
upperback 2.09697 0.0983925 1.43748
thorax -7.78921 0.0320646 0.837816
lowerneck 3.85016 -8.30752 -10.9144
upperneck 38.9734 -12.3197 2.51808
head 13.5557 -6.79901 1.64444
rclavicle 6.9233e-015 -1.24489e-014
rhumerus -52.8151 29.7582 -87.2606
rradius 110.037
rwrist 34.4359
rhand 0.278974 -41.4667
rfingers 7.12502
rthumb 25.8576 -69.7288
lclavicle 6.9233e-015 -1.24489e-014
lhumerus -54.473 -17.8096 94.9002
lradius 108.388
lwrist -3.64573
lhand -2.06919 -21.9505
lfingers 7.12502
lthumb 23.607 6.62033
rfemur 11.0888 9.03776 19.619
rtibia -1.98785e-014
rfoot -18.652 -17.2332
rtoes -12.4024
lfemur -3.48638 -1.84792 -9.67326
ltibia 24.7602
lfoot -18.6556 9.44156
ltoes -56.344
722
root -0.826598 18.6026 4.69643 -5.42126 -1.89792 -3.63756
lowerback 17.5519 0.11025 1.14081
upperback 2.13913 0.461402 1.23072
thorax -7.54249 0.206237 0.562479
lowerneck 2.98768 -8.20053 -10.48
upperneck 38.5676 -12.2453 2.92895
head 13.5165 -6.64791 1.70771
rclavicle -5.04416e-015 -1.59028e-015
rhumerus -49.8721 31.4032 -86.3967
rradius 109.328
rwrist 33.8477
rhand 0.752212 -42.2471
rfingers 7.12502
rthumb 26.3107 -70.4423
lclavicle -5.04416e-015 -1.59028e-015
lhumerus -53.4774 -18.8198 95.0688
lradius 108.267
lwrist -2.50344
lhand -1.70571 -21.6807
lfingers 7.12502
lthumb 23.9556 6.84477
rfemur 11.2543 10.0974 19.7588
rtibia -2.8625e-014
rfoot -18.7306 -17.2144
rtoes -12.1015
lfemur -2.8447 -1.38533 -9.66375
ltibia 24.7003
lfoot -19.0654 9.82688
ltoes -56.2998
723
root -0.821897 18.6026 4.70659 -5.40509 -2.39034 -3.59888
lowerback 17.2977 0.215443 1.07816
upperback 1.95694 0.576345 1.11005
thorax -7.5994 0.261419 0.442298
lowerneck 2.37473 -8.01808 -10.3421
upperneck 38.1053 -12.0798 3.40562
head 13.4282 -6.49489 1.86883
rclavicle 1.60643e-014 -1.94809e-014
rhumerus -46.943 33.0432 -85.3218
rradius 108.598
rwrist 33.1072
rhand 2.77508 -42.5614
rfingers 7.12502
rthumb 28.2456 -70.4524
lclavicle 1.60643e-014 -1.94809e-014
lhumerus -52.7211 -19.7531 95.5063
lradius 108.119
lwrist -1.37456
lhand -1.61029 -21.1742
lfingers 7.12502
lthumb 24.0471 7.33927
rfemur 11.1931 10.5941 19.7478
rtibia -2.38542e-015
rfoot -18.7082 -17.2193
rtoes -11.9922
lfemur -2.65606 -1.37104 -9.74788
ltibia 24.6559
lfoot -19.3022 10.1903
ltoes -56.1492
724
root -0.816861 18.6113 4.68001 -4.93366 -2.18624 -3.50961
lowerback 17.1047 0.14171 1.06256
upperback 1.48277 0.469608 0.972703
thorax -8.0051 0.206439 0.329948
lowerneck 1.8919 -7.91744 -10.0766
upperneck 37.5458 -11.9694 3.65223
head 13.248 -6.37449 1.91797
rclavicle -1.32689e-014 1.0138e-014
rhumerus -43.9764 34.3296 -84.0617
rradius 107.8
rwrist 32.0885
rhand 6.37069 -42.2515
rfingers 7.12502
rthumb 31.6765 -69.5218
lclavicle -1.32689e-014 1.0138e-014
lhumerus -52.0228 -20.8339 96.0445
lradius 107.918
lwrist -0.456143
lhand -1.5377 -20.7359
lfingers 7.12502
lthumb 24.1167 7.7683
rfemur 10.5602 10.4083 19.4766
rtibia -5.56597e-015
rfoot -18.5976 -17.2814
rtoes -11.9432
lfemur -3.31405 -1.63992 -9.9166
ltibia 24.6115
lfoot -19.1587 10.3727
ltoes -56.0507
725
root -0.814283 18.6109 4.69043 -4.95761 -2.42878 -3.48411
lowerback 16.8992 0.236754 1.05576
upperback 1.26474 0.583488 0.852721
thorax -8.12625 0.258659 0.178849
lowerneck 1.33137 -7.86238 -9.65634
upperneck 36.9482 -11.8771 3.73731
head 13.0471 -6.25693 1.8718
rclavicle 1.51822e-014 2.18663e-015
rhumerus -40.799 35.3226 -82.6662
rradius 106.82
rwrist 30.7851
rhand 8.51444 -42.7371
rfingers 7.12502
rthumb 33.716 -69.5834
lclavicle 1.51822e-014 2.18663e-015
lhumerus -51.1737 -21.9501 96.4904
lradius 107.651
lwrist 0.0331998
lhand -1.24304 -20.4902
lfingers 7.12502
lthumb 24.3992 7.97624
rfemur 10.5919 10.6522 19.4749
rtibia 6.36111e-015
rfoot -18.6499 -17.2536
rtoes -11.8435
lfemur -3.16313 -1.55418 -9.94868
ltibia 24.576
lfoot -19.2586 10.468
ltoes -56.0476
